<?xml version="1.0"?><svg version="1.2" baseProfile="tiny-ps" viewBox="0 0 138 138" xmlns="http://www.w3.org/2000/svg" xmlns:xlink="http://www.w3.org/1999/xlink"><title>FortDen</title><g><g fill="#afaeaf" transform="matrix(.1 0 0 -.1 0 138)"><path d="M343 1270c16-5 35-14 43-21l14-11V655l-8-12c-4-6-23-16-42-21l-35-10 62-1 62-1-5 14-6 14 14 24 13 23 5 125 5 125 63-2 62-2 20-11 20-10 9-33 9-32v95c-1 52-3 85-5 73l-4-23-22-15-21-15H460v265l10 15 9 15h150l20-20c11-11 27-38 35-60l15-40v50c0 28-2 60-5 73l-6 22-187-1-186-1 28-8zm357-522C577 543 451 332 419 278c-33-53-59-102-59-109v-13l14 19c16 24 500 833 534 893 13 24 22 45 19 48S822 953 700 748zm186-16c5-5 28-23 51-41l42-32 32-65 32-64 5-94 5-94-13-50-12-51-28-45-28-44-45-26-45-27-51-6-50-6-31 13c-16 7-31 13-32 14-1 0-4 100-8 221l-5 220-27-49-28-49V134l-13-17c-6-10-26-22-42-27l-30-9 170 2 170 2 41 22 41 22 47 51 46 52 20 65 20 65v124l-16 50c-27 81-86 149-161 184-24 11-48 20-55 20h-12l10-8z"/></g><g fill="#8c8c8c" transform="matrix(.1 0 0 -.1 0 138)"><path d="M349 1270c18-4 37-14 42-22l9-13V655l-9-13c-5-8-24-18-42-22l-34-8 62-1 62-1-5 14-5 14 15 31 16 30v241h115l25-13 25-13 12-34 12-35-1 95c0 52-3 85-5 74-2-12-13-30-23-39l-19-17-68-1-68-2-3 137-3 136 16 16 16 16h128l25-22 26-23 14-40 15-40v50c0 28-2 60-5 73l-6 22-187-1-186-1 34-8zm456-347c-65-109-128-214-140-233-73-115-305-514-305-523 0-7 13 8 29 33 52 81 531 887 537 904 17 46-14-2-121-181zm75-186c0-2 18-17 41-33l41-28 29-42 29-42 15-58 15-58V324l-15-51-15-50-31-42-30-43-56-25-55-25-53 4-54 5-15 12-16 13v418h-8c-4 0-17-19-30-42l-22-43V134l-15-21-15-22-28-4c-15-2 41-5 125-6l152-1 55 21 55 20 49 54 50 54 17 48 16 48 6 70 6 71-18 59-17 60-25 33c-35 46-63 71-103 92-39 20-80 34-80 27z"/></g><g fill="#727272" transform="matrix(.1 0 0 -.1 0 138)"><path d="M346 1271c17-4 36-11 42-15l12-7V641l-19-11c-11-5-30-10-42-10s-20-2-17-5c3-4 29-3 57 1l51 7-5 6c-2 4 5 20 16 37l19 29v247l71-4 71-4 24-27 24-28v63l-1 63-13-17c-19-25-60-38-122-38h-54v279l16 15 15 16h127l31-26 31-26 9-31 9-32 1 45c0 25-2 55-5 68l-6 22-187-1-186-1 31-7zm544-205c-16-25-30-47-30-49s-49-87-110-187c-60-100-110-185-110-187s-13-24-30-48c-16-24-30-46-30-50s-13-26-30-50c-16-24-30-46-30-48 0-3-36-64-80-137s-79-135-76-137c4-4 46 51 46 61 0 5 98 171 145 246 44 69 195 322 195 327 0 2 14 24 30 48 17 24 30 46 30 49 0 2 23 41 50 87 28 45 55 90 61 100 18 35 0 20-31-25zm-5-333c6-5 26-21 45-35 20-14 49-44 64-67l29-41 13-57 14-58V325l-14-53-14-53-36-43-35-43-38-19-38-18-60-4-60-4-25 20-25 20-5 208-5 207-20-39-20-39-5-177c-3-97-8-180-12-183-4-4-21-10-38-14l-31-6 143-2 143-3 52 16 51 16 36 30c20 16 50 49 66 73l30 44 16 68 16 68-6 60c-7 82-24 126-69 179l-38 45-42 25c-23 13-53 27-67 31l-25 7 10-9z"/></g><g fill="#5d5d5d" transform="matrix(.1 0 0 -.1 0 138)"><path d="m366 1266 31-14 7-32c3-18 6-148 6-289V675l-14-27-15-28h50l-5 8c-3 5 4 23 15 40l19 32v240h121l22-12c12-6 27-18 34-27l11-16-3 35c-2 19-4 40-4 47l-1 12-35-15-34-14H460v271l10 20 11 19h147l30-34 30-34 4 28 4 29-8 15-9 16H507l-172-1 31-13zm524-201c-7-9-11-18-8-20 3-3 11 1 18 10s11 18 8 20c-3 3-11-1-18-10zm-60-105c-6-11-8-20-6-20 3 0 10 9 16 20s8 20 6 20c-3 0-10-9-16-20zm-60-100c-6-11-8-20-6-20 3 0 10 9 16 20s8 20 6 20c-3 0-10-9-16-20zm-36-62c-4-7-14-24-22-38l-14-25 17 20c20 24 37 55 31 55-3 0-8-6-12-12zm-64-104c-12-19-20-37-18-39 2-3 15 13 27 35 28 50 21 53-9 4zm272-3 47-42 25-52 25-52 9-74 9-74-11-76-11-76-22-35c-30-49-71-86-115-104l-37-16H749l-24 25-25 24v396l-23-35-22-35-5-178-5-178-14-8-14-9 114-7 115-7 37 10c21 6 58 22 82 37l45 26 34 45 35 45 18 52 18 52v150l-20 53-20 54-32 38c-35 41-81 73-123 85l-25 8 47-42zm-614-78c7-3 16-2 19 1 4 3-2 6-13 5l-19-1 13-5zm286-15c-4-7-14-24-22-38l-14-25 17 20c20 24 37 55 31 55-3 0-8-6-12-12zm-64-108c-6-11-8-20-6-20 3 0 10 9 16 20s8 20 6 20c-3 0-10-9-16-20zm-54-92-18-33 21 25c18 22 26 40 18 40-1 0-11-15-21-32zm-59-95c-11-13-17-26-14-29 2-3 12 7 21 22 23 33 17 39-7 7zm-60-100c-11-13-17-26-14-29 2-3 12 7 21 22 23 33 17 39-7 7zM588 83c7-3 16-2 19 1 4 3-2 6-13 5l-19-1 13-5z"/></g><g fill="#4d4c4c" transform="matrix(.1 0 0 -.1 0 138)"><path d="m396 1243 14-28V675l-14-27-15-28h39v10c0 6 7 21 15 34l16 24 3 123 4 124 61 3 60 3 31-16 30-16v72l-30-16-31-16-62 3-62 3v272l14 16 13 17h150l29-31 29-31v72H381l15-27zm558-560 39-38 30-63 29-63V291l-30-65-30-65-41-27c-54-35-45-44 11-11l43 25 33 42 34 41 21 57 21 57v160l-26 55c-29 63-68 108-118 139-53 32-59 25-16-16zM673 491l-22-38-1-169-2-169-9-11-10-12 111-7c61-4 114-4 117-1 4 3-21 6-54 6h-60l-19 21-19 21-5 199-5 198-22-38zM878 93c7-3 16-2 19 1 4 3-2 6-13 5l-19-1 13-5z"/></g><g fill="#3c3b3a" transform="matrix(.1 0 0 -.1 0 138)"><path d="m400 1250 11-20-3-295c-2-162 0-295 3-295s13 15 23 33l17 32 2 265 2 265 9 18 8 17h-83l11-20zm240 12c0-9 33-42 42-42 3 0 5 10 4 23l-1 22-22 3-23 3v-9zm-28-304-12-12 11-13c7-7 15-13 20-13h9v25c0 27-9 32-28 13zm373-304c18-23 41-64 51-91l19-48V285l-23-50c-13-27-37-65-55-84l-32-34 32 21c43 30 82 79 105 130l20 44 7 73 7 72-9 34c-21 85-74 166-126 192l-29 14 33-43zM679 495l-17-30-4-187-3-188h77l-13 17-14 16-5 201-5 201-16-30z"/></g></g></svg>